# Blender v2.82 (sub 7) OBJ File: ''
# www.blender.org
mtllib box.mtl
o Cube
v 1.000000 1.000000 -1.000000
v 1.000000 -1.000000 -1.000000
v 1.000000 1.000000 1.000000
v 1.000000 -1.000000 1.000000
v -1.000000 1.000000 -1.000000
v -1.000000 -1.000000 -1.000000
v -1.226106 1.141350 0.592525
v -1.000000 -1.000000 1.000000
vn 0.0000 1.0000 0.0000
vn 0.0000 0.0000 1.0000
vn -0.9945 -0.1050 0.0000
vn 0.0000 -1.0000 0.0000
vn 1.0000 0.0000 0.0000
vn 0.0000 0.0000 -1.0000
vn 0.0773 0.9940 -0.0773
vn -0.1672 0.1672 0.9716
vn -0.9901 0.0000 -0.1406
usemtl Material
s off
f 5//1 3//1 1//1
f 3//2 8//2 4//2
f 7//3 6//3 8//3
f 2//4 8//4 6//4
f 1//5 4//5 2//5
f 5//6 2//6 6//6
f 5//7 7//7 3//7
f 3//8 7//8 8//8
f 7//9 5//9 6//9
f 2//4 4//4 8//4
f 1//5 3//5 4//5
f 5//6 1//6 2//6
