# Blender v2.82 (sub 7) OBJ File: ''
# www.blender.org
mtllib test.mtl
o Cube_Cube.001
v -0.567406 -1.792215 0.291279
v -0.567406 1.440738 0.291279
v -0.567406 -1.792215 -1.708721
v -0.567406 1.440738 -1.708721
v 1.432594 -1.792215 0.291279
v 1.432594 1.440738 0.291279
v 1.432594 -1.792215 -1.708721
v 1.432594 1.440738 -1.708721
v -0.567406 4.016019 0.291279
v -0.567406 4.016019 -1.708721
v 1.432594 4.016019 -1.708721
v 1.432594 4.016019 0.291279
v -4.986385 1.440738 0.291279
v -4.986385 1.440738 -1.708721
v -4.986385 4.016019 0.291279
v -4.986385 4.016019 -1.708721
v -0.567406 1.440738 -6.488840
v 1.432594 1.440738 -6.488840
v -0.567406 4.016019 -6.488840
v 1.432594 4.016019 -6.488840
v -0.567406 -3.877681 -1.708721
v -0.567406 -3.877681 0.291279
v 1.432594 -3.877681 -1.708721
v 1.432594 -3.877681 0.291279
v 1.432594 -1.792215 -6.474913
v -0.567406 -1.792215 -6.474913
v 1.432594 -3.877681 -6.474913
v -0.567406 -3.877681 -6.474913
vn -1.0000 0.0000 0.0000
vn 0.0000 0.0000 -1.0000
vn 1.0000 0.0000 0.0000
vn 0.0000 0.0000 1.0000
vn 0.0000 1.0000 0.0000
vn 0.0000 -1.0000 0.0000
usemtl None
s off
f 2//1 3//1 1//1
f 4//2 7//2 3//2
f 8//3 5//3 7//3
f 6//4 1//4 5//4
f 7//5 26//5 3//5
f 2//6 14//6 4//6
f 10//5 12//5 11//5
f 6//4 9//4 2//4
f 11//5 19//5 10//5
f 8//3 12//3 6//3
f 13//1 16//1 14//1
f 9//4 13//4 2//4
f 10//5 15//5 9//5
f 4//2 16//2 10//2
f 17//2 20//2 18//2
f 4//6 18//6 8//6
f 8//3 20//3 11//3
f 10//1 17//1 4//1
f 23//6 22//6 21//6
f 3//1 22//1 1//1
f 5//3 23//3 7//3
f 1//4 24//4 5//4
f 25//2 28//2 26//2
f 21//6 27//6 23//6
f 23//3 25//3 7//3
f 3//1 28//1 21//1
f 2//1 4//1 3//1
f 4//2 8//2 7//2
f 8//3 6//3 5//3
f 6//4 2//4 1//4
f 7//5 25//5 26//5
f 2//6 13//6 14//6
f 10//5 9//5 12//5
f 6//4 12//4 9//4
f 11//5 20//5 19//5
f 8//3 11//3 12//3
f 13//1 15//1 16//1
f 9//4 15//4 13//4
f 10//5 16//5 15//5
f 4//2 14//2 16//2
f 17//2 19//2 20//2
f 4//6 17//6 18//6
f 8//3 18//3 20//3
f 10//1 19//1 17//1
f 23//6 24//6 22//6
f 3//1 21//1 22//1
f 5//3 24//3 23//3
f 1//4 22//4 24//4
f 25//2 27//2 28//2
f 21//6 28//6 27//6
f 23//3 27//3 25//3
f 3//1 26//1 28//1
