# Blender v2.83.1 OBJ File: ''
# www.blender.org
mtllib test2.mtl
o Cube_Cube.001
v -0.228048 -0.228048 0.228048
v -0.228048 0.228048 0.228048
v -0.228048 -0.228048 -0.228048
v -0.228048 0.228048 -0.228048
v 0.228048 -0.228048 0.228048
v 0.228048 0.228048 0.228048
v 0.228048 -0.228048 -0.228048
v 0.228048 0.228048 -0.228048
v -1.750349 -0.228048 -0.228048
v -1.750349 -0.228048 0.228048
v -1.750349 0.228048 0.228048
v -1.750349 0.228048 -0.228048
v -2.217433 -0.228048 -0.228048
v -2.217433 -0.228048 0.228048
v -2.217433 0.228048 0.228048
v -2.217433 0.228048 -0.228048
v -0.228048 1.507706 0.228048
v -0.228048 1.507706 -0.228048
v 0.228048 1.507706 -0.228048
v 0.228048 1.507706 0.228048
v -1.750349 1.507706 0.228048
v -1.750349 1.507706 -0.228048
v -2.217433 1.507706 0.228048
v -2.217433 1.507706 -0.228048
v -0.228048 2.006406 0.228048
v -0.228048 2.006406 -0.228048
v 0.228048 2.006406 -0.228048
v 0.228048 2.006406 0.228048
v -1.750349 2.006406 0.228048
v -1.750349 2.006406 -0.228048
v -2.217433 2.006406 0.228048
v -2.217433 2.006406 -0.228048
v -0.228048 1.507706 -1.637935
v 0.228048 1.507706 -1.637935
v -1.750349 1.507706 -1.637935
v -2.217433 1.507706 -1.637935
v -0.228048 2.006406 -1.637935
v 0.228048 2.006406 -1.637935
v -1.750349 2.006406 -1.637935
v -2.217433 2.006406 -1.637935
v -0.228048 1.507706 -2.097368
v 0.228048 1.507706 -2.097368
v -1.750349 1.507706 -2.097368
v -2.217433 1.507706 -2.097368
v -0.228048 2.006406 -2.097368
v 0.228048 2.006406 -2.097368
v -1.750349 2.006406 -2.097368
v -2.217433 2.006406 -2.097368
v -0.228048 0.240093 -1.637935
v 0.228048 0.240093 -1.637935
v -1.750349 0.240093 -1.637935
v -2.217433 0.240093 -1.637935
v -0.228048 0.240093 -2.097368
v 0.228048 0.240093 -2.097368
v -1.750349 0.240093 -2.097368
v -2.217433 0.240093 -2.097368
v -0.228048 -0.219226 -1.637935
v 0.228048 -0.219226 -1.637935
v -1.750349 -0.219226 -1.637935
v -2.217433 -0.219226 -1.637935
v -0.228048 -0.219226 -2.097368
v 0.228048 -0.219226 -2.097368
v -1.750349 -0.219226 -2.097368
v -2.217433 -0.219226 -2.097368
v -0.228048 1.507706 -1.637935
v -0.228048 2.006406 -1.637935
v -1.750349 2.006406 -1.637935
v -1.750349 1.507706 -1.637935
v -0.228048 1.507706 -2.097368
v -0.228048 2.006406 -2.097368
v -1.750349 2.006406 -2.097368
v -1.750349 1.507706 -2.097368
v -0.228048 1.507706 -1.637935
v -0.228048 2.006406 -1.637935
v -1.750349 2.006406 -1.637935
v -1.750349 1.507706 -1.637935
v -0.228048 1.507706 -2.097368
v -0.228048 2.006406 -2.097368
v -1.750349 2.006406 -2.097368
v -1.750349 1.507706 -2.097368
vn 0.0000 0.0000 -1.0000
vn 1.0000 0.0000 0.0000
vn 0.0000 0.0000 1.0000
vn 0.0000 -1.0000 0.0000
vn 0.0000 1.0000 0.0000
vn -1.0000 0.0000 0.0000
vn 0.0000 1.0000 0.0085
vn 0.0000 -1.0000 -0.0063
usemtl None
s off
f 3//1 12//1 4//1
f 58//2 8//2 7//2
f 8//2 5//2 7//2
f 6//3 1//3 5//3
f 7//4 1//4 3//4
f 11//3 23//3 15//3
f 4//1 19//1 8//1
f 2//3 10//3 1//3
f 4//5 11//5 2//5
f 1//4 9//4 3//4
f 15//6 13//6 14//6
f 10//4 13//4 9//4
f 60//6 16//6 52//6
f 11//3 14//3 10//3
f 32//6 36//6 24//6
f 20//3 25//3 17//3
f 12//2 21//2 11//2
f 8//2 20//2 6//2
f 16//1 22//1 12//1
f 2//6 18//6 4//6
f 15//6 24//6 16//6
f 6//3 17//3 2//3
f 26//5 28//5 27//5
f 30//5 31//5 29//5
f 18//4 34//4 19//4
f 29//5 26//5 30//5
f 19//2 28//2 20//2
f 30//1 18//1 22//1
f 21//3 31//3 23//3
f 23//6 32//6 24//6
f 38//5 45//5 37//5
f 43//3 71//3 72//3
f 24//4 35//4 22//4
f 27//5 37//5 26//5
f 26//6 33//6 18//6
f 30//5 40//5 32//5
f 22//2 39//2 30//2
f 19//2 38//2 27//2
f 41//1 46//1 42//1
f 44//1 47//1 43//1
f 44//6 52//6 36//6
f 41//3 65//3 69//3
f 34//2 46//2 38//2
f 39//5 48//5 40//5
f 33//3 50//3 34//3
f 40//6 44//6 36//6
f 55//1 64//1 56//1
f 50//2 62//2 54//2
f 34//2 54//2 42//2
f 42//1 53//1 41//1
f 41//6 49//6 33//6
f 36//3 51//3 35//3
f 35//2 55//2 43//2
f 43//1 56//1 44//1
f 57//4 62//4 58//4
f 60//4 63//4 59//4
f 52//7 12//7 51//7
f 63//4 57//4 59//4
f 59//3 49//3 51//3
f 54//1 61//1 53//1
f 58//8 3//8 57//8
f 56//6 60//6 52//6
f 49//7 8//7 50//7
f 57//6 4//6 49//6
f 55//1 61//1 63//1
f 51//5 53//5 55//5
f 59//8 13//8 60//8
f 59//2 12//2 9//2
f 21//3 25//3 29//3
f 22//4 17//4 21//4
f 65//3 74//3 73//3
f 70//3 77//3 78//3
f 35//3 72//3 68//3
f 33//3 66//3 65//3
f 37//3 70//3 66//3
f 45//3 69//3 70//3
f 47//3 67//3 71//3
f 39//3 68//3 67//3
f 79//1 77//1 80//1
f 80//4 73//4 76//4
f 71//3 75//3 79//3
f 69//3 73//3 77//3
f 72//3 79//3 80//3
f 67//3 76//3 75//3
f 68//3 80//3 76//3
f 66//3 78//3 74//3
f 75//5 78//5 79//5
f 76//3 74//3 75//3
f 3//1 9//1 12//1
f 58//2 50//2 8//2
f 8//2 6//2 5//2
f 6//3 2//3 1//3
f 7//4 5//4 1//4
f 11//3 21//3 23//3
f 4//1 18//1 19//1
f 2//3 11//3 10//3
f 4//5 12//5 11//5
f 1//4 10//4 9//4
f 15//6 16//6 13//6
f 10//4 14//4 13//4
f 60//6 13//6 16//6
f 11//3 15//3 14//3
f 32//6 40//6 36//6
f 20//3 28//3 25//3
f 12//2 22//2 21//2
f 8//2 19//2 20//2
f 16//1 24//1 22//1
f 2//6 17//6 18//6
f 15//6 23//6 24//6
f 6//3 20//3 17//3
f 26//5 25//5 28//5
f 30//5 32//5 31//5
f 18//4 33//4 34//4
f 29//5 25//5 26//5
f 19//2 27//2 28//2
f 30//1 26//1 18//1
f 21//3 29//3 31//3
f 23//6 31//6 32//6
f 38//5 46//5 45//5
f 43//3 47//3 71//3
f 24//4 36//4 35//4
f 27//5 38//5 37//5
f 26//6 37//6 33//6
f 30//5 39//5 40//5
f 22//2 35//2 39//2
f 19//2 34//2 38//2
f 41//1 45//1 46//1
f 44//1 48//1 47//1
f 44//6 56//6 52//6
f 41//3 33//3 65//3
f 34//2 42//2 46//2
f 39//5 47//5 48//5
f 33//3 49//3 50//3
f 40//6 48//6 44//6
f 55//1 63//1 64//1
f 50//2 58//2 62//2
f 34//2 50//2 54//2
f 42//1 54//1 53//1
f 41//6 53//6 49//6
f 36//3 52//3 51//3
f 35//2 51//2 55//2
f 43//1 55//1 56//1
f 57//4 61//4 62//4
f 60//4 64//4 63//4
f 52//7 16//7 12//7
f 63//4 61//4 57//4
f 59//3 57//3 49//3
f 54//1 62//1 61//1
f 58//8 7//8 3//8
f 56//6 64//6 60//6
f 49//7 4//7 8//7
f 57//6 3//6 4//6
f 55//1 53//1 61//1
f 51//5 49//5 53//5
f 59//8 9//8 13//8
f 59//2 51//2 12//2
f 21//3 17//3 25//3
f 22//4 18//4 17//4
f 65//3 66//3 74//3
f 70//3 69//3 77//3
f 35//3 43//3 72//3
f 33//3 37//3 66//3
f 37//3 45//3 70//3
f 45//3 41//3 69//3
f 47//3 39//3 67//3
f 39//3 35//3 68//3
f 79//1 78//1 77//1
f 80//4 77//4 73//4
f 71//3 67//3 75//3
f 69//3 65//3 73//3
f 72//3 71//3 79//3
f 67//3 68//3 76//3
f 68//3 72//3 80//3
f 66//3 70//3 78//3
f 75//5 74//5 78//5
f 76//3 73//3 74//3
